{"asset":{"version":"2.0","generator":"Blockbench 5.0.7 glTF exporter"},"scenes":[{"nodes":[0,1,2,3,4,5,7],"name":"blockbench_export"}],"scene":0,"nodes":[{"name":"mesh","mesh":0},{"rotation":[1.077870528530579e-9,0.7071067564992859,-0.7071068058738083,1.0778677599119146e-9],"translation":[0,0.3205640203593316,-1.3125],"name":"cylinder","mesh":1},{"rotation":[1.077870528530579e-9,0.7071067564992859,-0.7071068058738083,1.0778677599119146e-9],"translation":[0,0.21118902035933163,-1.390625],"name":"cylinder","mesh":2},{"rotation":[0,0,-0.7071067811865475,0.7071067811865476],"translation":[0,0.125,-0.3125],"name":"plane","mesh":3},{"rotation":[0,0,-0.7071067811865475,0.7071067811865476],"translation":[0,0.3125,-0.9375],"name":"plane","mesh":4},{"translation":[0,0.11249999999999999,-0.375],"name":"mesh","mesh":5},{"name":"cylinder","mesh":6},{"translation":[2.135044278125301e-18,0.40625,-0.953125],"name":"group","children":[6]}],"bufferViews":[{"buffer":0,"byteOffset":0,"byteLength":1920,"target":34962,"byteStride":12},{"buffer":0,"byteOffset":1920,"byteLength":1920,"target":34962,"byteStride":12},{"buffer":0,"byteOffset":3840,"byteLength":1280,"target":34962,"byteStride":8},{"buffer":0,"byteOffset":5120,"byteLength":480,"target":34963},{"buffer":0,"byteOffset":5600,"byteLength":1140,"target":34962,"byteStride":12},{"buffer":0,"byteOffset":6740,"byteLength":1140,"target":34962,"byteStride":12},{"buffer":0,"byteOffset":7880,"byteLength":760,"target":34962,"byteStride":8},{"buffer":0,"byteOffset":8640,"byteLength":272,"target":34963},{"buffer":0,"byteOffset":8912,"byteLength":504,"target":34962,"byteStride":12},{"buffer":0,"byteOffset":9416,"byteLength":504,"target":34962,"byteStride":12},{"buffer":0,"byteOffset":9920,"byteLength":336,"target":34962,"byteStride":8},{"buffer":0,"byteOffset":10256,"byteLength":108,"target":34963},{"buffer":0,"byteOffset":10364,"byteLength":48,"target":34962,"byteStride":12},{"buffer":0,"byteOffset":10412,"byteLength":48,"target":34962,"byteStride":12},{"buffer":0,"byteOffset":10460,"byteLength":32,"target":34962,"byteStride":8},{"buffer":0,"byteOffset":10492,"byteLength":12,"target":34963},{"buffer":0,"byteOffset":10504,"byteLength":48,"target":34962,"byteStride":12},{"buffer":0,"byteOffset":10552,"byteLength":48,"target":34962,"byteStride":12},{"buffer":0,"byteOffset":10600,"byteLength":32,"target":34962,"byteStride":8},{"buffer":0,"byteOffset":10632,"byteLength":12,"target":34963},{"buffer":0,"byteOffset":10644,"byteLength":384,"target":34962,"byteStride":12},{"buffer":0,"byteOffset":11028,"byteLength":384,"target":34962,"byteStride":12},{"buffer":0,"byteOffset":11412,"byteLength":256,"target":34962,"byteStride":8},{"buffer":0,"byteOffset":11668,"byteLength":96,"target":34963},{"buffer":0,"byteOffset":11764,"byteLength":1440,"target":34962,"byteStride":12},{"buffer":0,"byteOffset":13204,"byteLength":1440,"target":34962,"byteStride":12},{"buffer":0,"byteOffset":14644,"byteLength":960,"target":34962,"byteStride":8},{"buffer":0,"byteOffset":15604,"byteLength":288,"target":34963},{"buffer":0,"byteOffset":15892,"byteLength":28},{"buffer":0,"byteOffset":15920,"byteLength":112}],"buffers":[{"byteLength":16032,"uri":"data:application/octet-stream;base64,"}],"accessors":[{"bufferView":0,"componentType":5126,"count":160,"max":[0.0625,0.375,1],"min":[-0.0625,-0.125,-0.8125],"type":"VEC3"},{"bufferView":1,"componentType":5126,"count":160,"max":[1,0.8944271802902222,1],"min":[-1,-0.9701424837112427,-1],"type":"VEC3"},{"bufferView":2,"componentType":5126,"count":160,"max":[0.28515625,0.150390625],"min":[0.00390625,0.01757812313735485],"type":"VEC2"},{"bufferView":3,"componentType":5123,"count":240,"max":[159],"min":[0],"type":"SCALAR"},{"bufferView":4,"componentType":5126,"count":95,"max":[0.05341025069355965,1.125,0.04662347957491875],"min":[-0.05341025069355965,-0.5,-0.05578551068902016],"type":"VEC3"},{"bufferView":5,"componentType":5126,"count":95,"max":[0.9517786502838135,1.6039187755723106e-8,1],"min":[-0.9517786502838135,-1,-0.8117896318435669],"type":"VEC3"},{"bufferView":6,"componentType":5126,"count":95,"max":[0.6590203046798706,0.36721327900886536],"min":[0.5078125,0.25390625],"type":"VEC2"},{"bufferView":7,"componentType":5123,"count":135,"max":[94],"min":[0],"type":"SCALAR"},{"bufferView":8,"componentType":5126,"count":42,"max":[0.031535252928733826,0.28663262724876404,0.024748479947447777],"min":[-0.031535252928733826,-0.6875,-0.03391050919890404],"type":"VEC3"},{"bufferView":9,"componentType":5126,"count":42,"max":[0.9489892721176147,1,1],"min":[-0.9489892721176147,-1,-0.8151912093162537],"type":"VEC3"},{"bufferView":10,"componentType":5126,"count":42,"max":[0.5957390666007996,0.443359375],"min":[0.5078125,0.380859375],"type":"VEC2"},{"bufferView":11,"componentType":5123,"count":54,"max":[41],"min":[0],"type":"SCALAR"},{"bufferView":12,"componentType":5126,"count":4,"max":[0.09375,0,0.140625],"min":[-0.09375,0,-0.203125],"type":"VEC3"},{"bufferView":13,"componentType":5126,"count":4,"max":[0,1,0],"min":[0,1,0],"type":"VEC3"},{"bufferView":14,"componentType":5126,"count":4,"max":[0.68359375,0.427734375],"min":[0.63671875,0.380859375],"type":"VEC2"},{"bufferView":15,"componentType":5123,"count":6,"max":[3],"min":[0],"type":"SCALAR"},{"bufferView":16,"componentType":5126,"count":4,"max":[0.09375,0,0.140625],"min":[-0.03125,0,-0.640625],"type":"VEC3"},{"bufferView":17,"componentType":5126,"count":4,"max":[0,1,0],"min":[0,1,0],"type":"VEC3"},{"bufferView":18,"componentType":5126,"count":4,"max":[0.5234375,0.1796874850988388],"min":[0.5078125,0.12890625],"type":"VEC2"},{"bufferView":19,"componentType":5123,"count":6,"max":[3],"min":[0],"type":"SCALAR"},{"bufferView":20,"componentType":5126,"count":32,"max":[0.046875,0.53125,0.1875],"min":[-0.046875,0.21875,-0.1875],"type":"VEC3"},{"bufferView":21,"componentType":5126,"count":32,"max":[1,1,1],"min":[-1,-1,-1],"type":"VEC3"},{"bufferView":22,"componentType":5126,"count":32,"max":[0.6953125,0.0800781324505806],"min":[0.5078125,0.001953128259629011],"type":"VEC2"},{"bufferView":23,"componentType":5123,"count":48,"max":[31],"min":[0],"type":"SCALAR"},{"bufferView":24,"componentType":5126,"count":120,"max":[0.375,0.03125,0.375],"min":[-0.375,-0.03125,-0.375],"type":"VEC3"},{"bufferView":25,"componentType":5126,"count":120,"max":[1,1,1],"min":[-1,-1,-1],"type":"VEC3"},{"bufferView":26,"componentType":5126,"count":120,"max":[0.3585640490055084,0.43359375],"min":[0.00390625,0.25390625],"type":"VEC2"},{"bufferView":27,"componentType":5123,"count":144,"max":[119],"min":[0],"type":"SCALAR"},{"bufferView":28,"componentType":5126,"count":7,"max":[0.5],"min":[0],"type":"SCALAR"},{"bufferView":29,"componentType":5126,"count":7,"max":[0,0,0,1],"min":[0,-1,0,-1],"type":"VEC4"}],"materials":[{"pbrMetallicRoughness":{"metallicFactor":0,"roughnessFactor":1,"baseColorTexture":{"index":0}},"alphaMode":"MASK","alphaCutoff":0.05,"doubleSided":true}],"textures":[{"sampler":0,"source":0,"name":"stiched_texture"}],"samplers":[{"magFilter":9728,"minFilter":9728,"wrapS":10497,"wrapT":10497}],"images":[{"mimeType":"image/png","uri":"data:image/png;base64,"}],"meshes":[{"primitives":[{"mode":4,"attributes":{"POSITION":0,"NORMAL":1,"TEXCOORD_0":2},"indices":3,"material":0}]},{"primitives":[{"mode":4,"attributes":{"POSITION":4,"NORMAL":5,"TEXCOORD_0":6},"indices":7,"material":0}]},{"primitives":[{"mode":4,"attributes":{"POSITION":8,"NORMAL":9,"TEXCOORD_0":10},"indices":11,"material":0}]},{"primitives":[{"mode":4,"attributes":{"POSITION":12,"NORMAL":13,"TEXCOORD_0":14},"indices":15,"material":0}]},{"primitives":[{"mode":4,"attributes":{"POSITION":16,"NORMAL":17,"TEXCOORD_0":18},"indices":19,"material":0}]},{"primitives":[{"mode":4,"attributes":{"POSITION":20,"NORMAL":21,"TEXCOORD_0":22},"indices":23,"material":0}]},{"primitives":[{"mode":4,"attributes":{"POSITION":24,"NORMAL":25,"TEXCOORD_0":26},"indices":27,"material":0}]}],"animations":[{"name":"rot","samplers":[{"input":28,"output":29,"interpolation":"STEP"}],"channels":[{"sampler":0,"target":{"node":7,"path":"rotation"}}]}]}