{
  "accessors": [
    {
      "bufferView": 0,
      "componentType": 5126,
      "count": 10291,
      "type": "VEC3",
      "max": [
        0.50008350610733032,
        0.53032350540161133,
        1.3998230695724487
      ],
      "min": [
        -0.50001996755599976,
        -0.52993565797805786,
        -1.3999899625778198
      ]
    },
    {
      "bufferView": 1,
      "componentType": 5126,
      "count": 10291,
      "type": "VEC3",
      "max": [
        1.0,
        1.0,
        1.0
      ],
      "min": [
        -1.0,
        -1.0,
        -1.0
      ]
    },
    {
      "bufferView": 2,
      "componentType": 5126,
      "count": 10291,
      "type": "VEC4",
      "max": [
        1.0,
        0.99999833106994629,
        0.99994301795959473,
        1.0
      ],
      "min": [
        -0.9999992847442627,
        -0.99999916553497314,
        -0.99998760223388672,
        -1.0
      ]
    },
    {
      "bufferView": 3,
      "componentType": 5126,
      "count": 10291,
      "type": "VEC2",
      "max": [
        0.99608999490737915,
        0.97422999143600464
      ],
      "min": [
        0.0038999998942017555,
        0.0038999998942017555
      ]
    },
    {
      "bufferView": 4,
      "componentType": 5125,
      "count": 50202,
      "type": "SCALAR",
      "max": [
        10290.0
      ],
      "min": [
        0.0
      ]
    }
  ],
  "asset": {
    "generator": "UnityGLTF (2019.1.0f2)",
    "version": "2.0"
  },
  "buffers": [
    {
      "uri": "Unity2Skfb.bin",
      "byteLength": 694776
    }
  ],
  "bufferViews": [
    {
      "buffer": 0,
      "byteLength": 123492
    },
    {
      "buffer": 0,
      "byteOffset": 123492,
      "byteLength": 123492
    },
    {
      "buffer": 0,
      "byteOffset": 246984,
      "byteLength": 164656
    },
    {
      "buffer": 0,
      "byteOffset": 411640,
      "byteLength": 82328
    },
    {
      "buffer": 0,
      "byteOffset": 493968,
      "byteLength": 200808
    }
  ],
  "materials": [
    {
      "emissiveFactor": [
        1.0,
        1.0,
        1.0
      ],
      "name": "Sphynx"
    }
  ],
  "meshes": [
    {
      "primitives": [
        {
          "attributes": {
            "POSITION": 0,
            "NORMAL": 1,
            "TANGENT": 2,
            "TEXCOORD_0": 3
          },
          "indices": 4,
          "material": 0
        }
      ],
      "name": "Group39813"
    }
  ],
  "nodes": [
    {
      "children": [
        1
      ],
      "rotation": [
        0.0,
        0.0,
        0.0,
        -1.0
      ],
      "name": "Sphynx"
    },
    {
      "mesh": 0,
      "rotation": [
        0.0,
        0.0,
        0.0,
        -1.0
      ],
      "name": "Group39813"
    }
  ],
  "scene": 0,
  "scenes": [
    {
      "nodes": [
        0
      ],
      "name": "Unity2Skfb"
    }
  ]
}