{"asset":{"version":"2.0","generator":"Blockbench 5.0.7 glTF exporter"},"scenes":[{"nodes":[20],"name":"blockbench_export"}],"scene":0,"nodes":[{"rotation":[-0.08715574274765817,0,0,0.9961946980917455],"translation":[0,-0.0625,0.0625],"name":"torso","mesh":0},{"rotation":[-0.08715574274765817,0,0,0.9961946980917455],"name":"torso","mesh":1},{"name":"group3","children":[0,1]},{"translation":[0,-0.3125,0.3125],"name":"neck","mesh":2},{"name":"head","mesh":3},{"translation":[0,1.1875,-0.5],"name":"group4","children":[3,4]},{"rotation":[-0.08715574274765817,0,0,0.9961946980917455],"translation":[0,0.0625,0.3125],"name":"spine","mesh":4},{"rotation":[0.08715574274765817,0,0,0.9961946980917455],"name":"Pelvis","mesh":5},{"translation":[0,-0.875,-0.0625],"name":"group5","children":[6,7]},{"translation":[-0.0625,0.015625,0.15625],"name":"mesh","mesh":6},{"rotation":[0,0.08715574274765817,0,0.9961946980917455],"translation":[0,0,0.3125],"name":"mesh","mesh":7},{"rotation":[0,-0.08715574274765817,0,0.9961946980917455],"name":"mesh","mesh":8},{"rotation":[-0.19786899339406003,-0.6788577623134476,0.19786899339406008,0.6788577623134477],"translation":[0.3125,-0.0625,0.0625],"name":"mesh","mesh":9},{"translation":[0.375,0.046875,0.125],"name":"mesh","mesh":10},{"translation":[-3.09375,0.703125,-0.5],"name":"group6","children":[9,10,11,12,13]},{"translation":[0.4375,-0.03125,0.03125],"name":"mesh","mesh":11},{"rotation":[0,-0.08715574274765817,0,0.9961946980917455],"translation":[0.375,-0.046875,0.1875],"name":"mesh","mesh":12},{"rotation":[0,0.08715574274765817,0,0.9961946980917455],"translation":[0.375,-0.046875,-0.125],"name":"mesh","mesh":13},{"name":"mesh","mesh":14},{"translation":[2.71875,0.75,-0.375],"name":"group7","children":[15,16,17,18]},{"translation":[0,4,-0.03125],"name":"group2","children":[2,5,8,14,19]}],"bufferViews":[{"buffer":0,"byteOffset":0,"byteLength":1152,"target":34962,"byteStride":12},{"buffer":0,"byteOffset":1152,"byteLength":1152,"target":34962,"byteStride":12},{"buffer":0,"byteOffset":2304,"byteLength":768,"target":34962,"byteStride":8},{"buffer":0,"byteOffset":3072,"byteLength":288,"target":34963},{"buffer":0,"byteOffset":3360,"byteLength":384,"target":34962,"byteStride":12},{"buffer":0,"byteOffset":3744,"byteLength":384,"target":34962,"byteStride":12},{"buffer":0,"byteOffset":4128,"byteLength":256,"target":34962,"byteStride":8},{"buffer":0,"byteOffset":4384,"byteLength":96,"target":34963},{"buffer":0,"byteOffset":4480,"byteLength":216,"target":34962,"byteStride":12},{"buffer":0,"byteOffset":4696,"byteLength":216,"target":34962,"byteStride":12},{"buffer":0,"byteOffset":4912,"byteLength":144,"target":34962,"byteStride":8},{"buffer":0,"byteOffset":5056,"byteLength":48,"target":34963},{"buffer":0,"byteOffset":5104,"byteLength":1152,"target":34962,"byteStride":12},{"buffer":0,"byteOffset":6256,"byteLength":1152,"target":34962,"byteStride":12},{"buffer":0,"byteOffset":7408,"byteLength":768,"target":34962,"byteStride":8},{"buffer":0,"byteOffset":8176,"byteLength":288,"target":34963},{"buffer":0,"byteOffset":8464,"byteLength":360,"target":34962,"byteStride":12},{"buffer":0,"byteOffset":8824,"byteLength":360,"target":34962,"byteStride":12},{"buffer":0,"byteOffset":9184,"byteLength":240,"target":34962,"byteStride":8},{"buffer":0,"byteOffset":9424,"byteLength":84,"target":34963},{"buffer":0,"byteOffset":9508,"byteLength":960,"target":34962,"byteStride":12},{"buffer":0,"byteOffset":10468,"byteLength":960,"target":34962,"byteStride":12},{"buffer":0,"byteOffset":11428,"byteLength":640,"target":34962,"byteStride":8},{"buffer":0,"byteOffset":12068,"byteLength":240,"target":34963},{"buffer":0,"byteOffset":12308,"byteLength":288,"target":34962,"byteStride":12},{"buffer":0,"byteOffset":12596,"byteLength":288,"target":34962,"byteStride":12},{"buffer":0,"byteOffset":12884,"byteLength":192,"target":34962,"byteStride":8},{"buffer":0,"byteOffset":13076,"byteLength":60,"target":34963},{"buffer":0,"byteOffset":13136,"byteLength":288,"target":34962,"byteStride":12},{"buffer":0,"byteOffset":13424,"byteLength":288,"target":34962,"byteStride":12},{"buffer":0,"byteOffset":13712,"byteLength":192,"target":34962,"byteStride":8},{"buffer":0,"byteOffset":13904,"byteLength":60,"target":34963},{"buffer":0,"byteOffset":13964,"byteLength":288,"target":34962,"byteStride":12},{"buffer":0,"byteOffset":14252,"byteLength":288,"target":34962,"byteStride":12},{"buffer":0,"byteOffset":14540,"byteLength":192,"target":34962,"byteStride":8},{"buffer":0,"byteOffset":14732,"byteLength":60,"target":34963},{"buffer":0,"byteOffset":14792,"byteLength":288,"target":34962,"byteStride":12},{"buffer":0,"byteOffset":15080,"byteLength":288,"target":34962,"byteStride":12},{"buffer":0,"byteOffset":15368,"byteLength":192,"target":34962,"byteStride":8},{"buffer":0,"byteOffset":15560,"byteLength":60,"target":34963},{"buffer":0,"byteOffset":15620,"byteLength":480,"target":34962,"byteStride":12},{"buffer":0,"byteOffset":16100,"byteLength":480,"target":34962,"byteStride":12},{"buffer":0,"byteOffset":16580,"byteLength":320,"target":34962,"byteStride":8},{"buffer":0,"byteOffset":16900,"byteLength":120,"target":34963},{"buffer":0,"byteOffset":17020,"byteLength":288,"target":34962,"byteStride":12},{"buffer":0,"byteOffset":17308,"byteLength":288,"target":34962,"byteStride":12},{"buffer":0,"byteOffset":17596,"byteLength":192,"target":34962,"byteStride":8},{"buffer":0,"byteOffset":17788,"byteLength":60,"target":34963},{"buffer":0,"byteOffset":17848,"byteLength":288,"target":34962,"byteStride":12},{"buffer":0,"byteOffset":18136,"byteLength":288,"target":34962,"byteStride":12},{"buffer":0,"byteOffset":18424,"byteLength":192,"target":34962,"byteStride":8},{"buffer":0,"byteOffset":18616,"byteLength":60,"target":34963},{"buffer":0,"byteOffset":18676,"byteLength":288,"target":34962,"byteStride":12},{"buffer":0,"byteOffset":18964,"byteLength":288,"target":34962,"byteStride":12},{"buffer":0,"byteOffset":19252,"byteLength":192,"target":34962,"byteStride":8},{"buffer":0,"byteOffset":19444,"byteLength":60,"target":34963},{"buffer":0,"byteOffset":19504,"byteLength":480,"target":34962,"byteStride":12},{"buffer":0,"byteOffset":19984,"byteLength":480,"target":34962,"byteStride":12},{"buffer":0,"byteOffset":20464,"byteLength":320,"target":34962,"byteStride":8},{"buffer":0,"byteOffset":20784,"byteLength":120,"target":34963},{"buffer":0,"byteOffset":20904,"byteLength":12},{"buffer":0,"byteOffset":20916,"byteLength":36},{"buffer":0,"byteOffset":20952,"byteLength":8},{"buffer":0,"byteOffset":20960,"byteLength":24},{"buffer":0,"byteOffset":20984,"byteLength":40},{"buffer":0,"byteOffset":21024,"byteLength":160},{"buffer":0,"byteOffset":21184,"byteLength":32},{"buffer":0,"byteOffset":21216,"byteLength":96},{"buffer":0,"byteOffset":21312,"byteLength":40},{"buffer":0,"byteOffset":21352,"byteLength":160},{"buffer":0,"byteOffset":21512,"byteLength":40},{"buffer":0,"byteOffset":21552,"byteLength":120},{"buffer":0,"byteOffset":21672,"byteLength":28},{"buffer":0,"byteOffset":21700,"byteLength":112},{"buffer":0,"byteOffset":21812,"byteLength":28},{"buffer":0,"byteOffset":21840,"byteLength":84},{"buffer":0,"byteOffset":21924,"byteLength":40},{"buffer":0,"byteOffset":21964,"byteLength":160},{"buffer":0,"byteOffset":22124,"byteLength":36},{"buffer":0,"byteOffset":22160,"byteLength":108},{"buffer":0,"byteOffset":22268,"byteLength":36},{"buffer":0,"byteOffset":22304,"byteLength":144},{"buffer":0,"byteOffset":22448,"byteLength":36},{"buffer":0,"byteOffset":22484,"byteLength":108}],"buffers":[{"byteLength":22592,"uri":"data:application/octet-stream;base64,"}],"accessors":[{"bufferView":0,"componentType":5126,"count":96,"max":[0.5625,1.0453169345855713,0.14741624891757965],"min":[-0.5625,-0.2046831250190735,-0.9150837659835815],"type":"VEC3"},{"bufferView":1,"componentType":5126,"count":96,"max":[0.98605877161026,0.9843659400939941,0.9920337200164795],"min":[-0.98605877161026,-0.9880579710006714,-0.9052885174751282],"type":"VEC3"},{"bufferView":2,"componentType":5126,"count":96,"max":[0.7304421663284302,0.251953125],"min":[0.5213221311569214,0.11794601380825043],"type":"VEC2"},{"bufferView":3,"componentType":5123,"count":144,"max":[95],"min":[0],"type":"SCALAR"},{"bufferView":4,"componentType":5126,"count":32,"max":[0.625,1.076003074645996,0.2967406213283539],"min":[-0.625,0.11262437701225281,-0.988436222076416],"type":"VEC3"},{"bufferView":5,"componentType":5126,"count":32,"max":[0.9818469882011414,0.34001341462135315,0.9321140646934509],"min":[-0.9901504516601562,0,-0.9089128971099854],"type":"VEC3"},{"bufferView":6,"componentType":5126,"count":32,"max":[0.14259421825408936,0.34899312257766724],"min":[0.006038124673068523,0.2539062798023224],"type":"VEC2"},{"bufferView":7,"componentType":5123,"count":48,"max":[31],"min":[0],"type":"SCALAR"},{"bufferView":8,"componentType":5126,"count":18,"max":[0.140625,0.5,0.15625],"min":[-0.140625,0,-0.34375],"type":"VEC3"},{"bufferView":9,"componentType":5126,"count":18,"max":[0.9137263894081116,0.31622812151908875,0.9486832022666931],"min":[-0.9137263894081116,-1,-0.9486832022666931],"type":"VEC3"},{"bufferView":10,"componentType":5126,"count":18,"max":[0.069754958152771,0.8359375],"min":[0.002538281260058284,0.7578125],"type":"VEC2"},{"bufferView":11,"componentType":5123,"count":24,"max":[17],"min":[0],"type":"SCALAR"},{"bufferView":12,"componentType":5126,"count":96,"max":[0.3125,0.75,0.375],"min":[-0.3125,-0.125,-0.4375],"type":"VEC3"},{"bufferView":13,"componentType":5126,"count":96,"max":[1,0.9318658709526062,0.911921501159668],"min":[-1,-0.9805806875228882,-0.9191468954086304],"type":"VEC3"},{"bufferView":14,"componentType":5126,"count":96,"max":[0.18963214755058289,0.2144767791032791],"min":[0.10273691266775131,0.006018143147230148],"type":"VEC2"},{"bufferView":15,"componentType":5123,"count":144,"max":[95],"min":[0],"type":"SCALAR"},{"bufferView":16,"componentType":5126,"count":30,"max":[0.125,0.8650962710380554,0],"min":[-0.125,-0.0625,-0.2898443639278412],"type":"VEC3"},{"bufferView":17,"componentType":5126,"count":30,"max":[0.8944271802902222,0.11773928254842758,1],"min":[-0.8944271802902222,-1,-0.4472135901451111],"type":"VEC3"},{"bufferView":18,"componentType":5126,"count":30,"max":[0.1953125,0.837890625],"min":[0.12890625,0.7578125],"type":"VEC2"},{"bufferView":19,"componentType":5123,"count":42,"max":[29],"min":[0],"type":"SCALAR"},{"bufferView":20,"componentType":5126,"count":80,"max":[0.5625,0.375,0.43560126423835754],"min":[-0.5625,-0.3125,-0.3342062532901764],"type":"VEC3"},{"bufferView":21,"componentType":5126,"count":80,"max":[0.911921501159668,0,0.9860139489173889],"min":[-0.911921501159668,-0.9805806875228882,-1],"type":"VEC3"},{"bufferView":22,"componentType":5126,"count":80,"max":[0.3838183581829071,0.3808593451976776],"min":[0.2543751299381256,0.2539062798023224],"type":"VEC2"},{"bufferView":23,"componentType":5123,"count":120,"max":[79],"min":[0],"type":"SCALAR"},{"bufferView":24,"componentType":5126,"count":24,"max":[0,0.0625,0.0625],"min":[-0.875,-0.1458331197500229,-0.0625],"type":"VEC3"},{"bufferView":25,"componentType":5126,"count":24,"max":[0.15676715970039368,0.4472135901451111,0.9531447887420654],"min":[-1,-1,-0.9531447887420654],"type":"VEC3"},{"bufferView":26,"componentType":5126,"count":24,"max":[0.7511820197105408,0.5810002684593201],"min":[0.6335602402687073,0.505859375],"type":"VEC2"},{"bufferView":27,"componentType":5123,"count":30,"max":[23],"min":[0],"type":"SCALAR"},{"bufferView":28,"componentType":5126,"count":24,"max":[0,0.0625,0.0625],"min":[-0.625,-0.1458331197500229,-0.0625],"type":"VEC3"},{"bufferView":29,"componentType":5126,"count":24,"max":[0.21692994236946106,0.4472135901451111,0.942376434803009],"min":[-1,-1,-0.942376434803009],"type":"VEC3"},{"bufferView":30,"componentType":5126,"count":24,"max":[0.7395435571670532,0.5966252684593201],"min":[0.6334708333015442,0.541015625],"type":"VEC2"},{"bufferView":31,"componentType":5123,"count":30,"max":[23],"min":[0],"type":"SCALAR"},{"bufferView":32,"componentType":5126,"count":24,"max":[0,0.0625,0.0625],"min":[-0.75,-0.1458331197500229,-0.0625],"type":"VEC3"},{"bufferView":33,"componentType":5126,"count":24,"max":[0.18208882212638855,0.4472135901451111,0.949051022529602],"min":[-1,-1,-0.949051022529602],"type":"VEC3"},{"bufferView":34,"componentType":5126,"count":24,"max":[0.7512158155441284,0.5649524927139282],"min":[0.6332248449325562,0.525390625],"type":"VEC2"},{"bufferView":35,"componentType":5123,"count":30,"max":[23],"min":[0],"type":"SCALAR"},{"bufferView":36,"componentType":5126,"count":24,"max":[0,0.0625,0.0625],"min":[-0.5,-0.1458331197500229,-0.0625],"type":"VEC3"},{"bufferView":37,"componentType":5126,"count":24,"max":[0.2676432430744171,0.4472135901451111,0.9304488301277161],"min":[-1,-1,-0.9304488301277161],"type":"VEC3"},{"bufferView":38,"componentType":5126,"count":24,"max":[0.7396532893180847,0.5966252684593201],"min":[0.6334341764450073,0.517578125],"type":"VEC2"},{"bufferView":39,"componentType":5123,"count":30,"max":[23],"min":[0],"type":"SCALAR"},{"bufferView":40,"componentType":5126,"count":40,"max":[0,0,0.25],"min":[-0.5,-0.1875,-0.1875],"type":"VEC3"},{"bufferView":41,"componentType":5126,"count":40,"max":[1,1,0.9645897150039673],"min":[-0.9094744920730591,-0.9922778606414795,-0.9645897150039673],"type":"VEC3"},{"bufferView":42,"componentType":5126,"count":40,"max":[0.572265625,0.572265625],"min":[0.505859375,0.505859375],"type":"VEC2"},{"bufferView":43,"componentType":5123,"count":60,"max":[39],"min":[0],"type":"SCALAR"},{"bufferView":44,"componentType":5126,"count":24,"max":[0.875,0.0625,0.0625],"min":[0,-0.1458331197500229,-0.0625],"type":"VEC3"},{"bufferView":45,"componentType":5126,"count":24,"max":[1,0.4472135901451111,0.9531447887420654],"min":[-0.15676715970039368,-1,-0.9531447887420654],"type":"VEC3"},{"bufferView":46,"componentType":5126,"count":24,"max":[0.7511820197105408,0.5810002684593201],"min":[0.6335602402687073,0.505859375],"type":"VEC2"},{"bufferView":47,"componentType":5123,"count":30,"max":[23],"min":[0],"type":"SCALAR"},{"bufferView":48,"componentType":5126,"count":24,"max":[0.625,0.0625,0.0625],"min":[0,-0.1458331197500229,-0.0625],"type":"VEC3"},{"bufferView":49,"componentType":5126,"count":24,"max":[1,0.4472135901451111,0.942376434803009],"min":[-0.21692994236946106,-1,-0.942376434803009],"type":"VEC3"},{"bufferView":50,"componentType":5126,"count":24,"max":[0.7395435571670532,0.5966252684593201],"min":[0.6334708333015442,0.541015625],"type":"VEC2"},{"bufferView":51,"componentType":5123,"count":30,"max":[23],"min":[0],"type":"SCALAR"},{"bufferView":52,"componentType":5126,"count":24,"max":[0.75,0.0625,0.0625],"min":[0,-0.1458331197500229,-0.0625],"type":"VEC3"},{"bufferView":53,"componentType":5126,"count":24,"max":[1,0.4472135901451111,0.949051022529602],"min":[-0.18208882212638855,-1,-0.949051022529602],"type":"VEC3"},{"bufferView":54,"componentType":5126,"count":24,"max":[0.7512158155441284,0.5649524927139282],"min":[0.6332248449325562,0.525390625],"type":"VEC2"},{"bufferView":55,"componentType":5123,"count":30,"max":[23],"min":[0],"type":"SCALAR"},{"bufferView":56,"componentType":5126,"count":40,"max":[0.5,0,0.25],"min":[0,-0.1875,-0.1875],"type":"VEC3"},{"bufferView":57,"componentType":5126,"count":40,"max":[0.9094744920730591,1,0.9645897150039673],"min":[-1,-0.9922778606414795,-0.9645897150039673],"type":"VEC3"},{"bufferView":58,"componentType":5126,"count":40,"max":[0.572265625,0.572265625],"min":[0.505859375,0.505859375],"type":"VEC2"},{"bufferView":59,"componentType":5123,"count":60,"max":[39],"min":[0],"type":"SCALAR"},{"bufferView":60,"componentType":5126,"count":3,"max":[1.7916699647903442],"min":[0],"type":"SCALAR"},{"bufferView":61,"componentType":5126,"count":3,"max":[0,4,-0.03125],"min":[0,2.625,-0.03125],"type":"VEC3"},{"bufferView":62,"componentType":5126,"count":2,"max":[1],"min":[0],"type":"SCALAR"},{"bufferView":63,"componentType":5126,"count":2,"max":[1,1,1],"min":[1,1,1],"type":"VEC3"},{"bufferView":64,"componentType":5126,"count":10,"max":[0.75],"min":[0],"type":"SCALAR"},{"bufferView":65,"componentType":5126,"count":10,"max":[0.9990482330322266,0.06890982389450073,0.15519879758358002,0.9659258127212524],"min":[0.258819043636322,0,0,-0.04361938685178757],"type":"VEC4"},{"bufferView":66,"componentType":5126,"count":8,"max":[0.583329975605011],"min":[0],"type":"SCALAR"},{"bufferView":67,"componentType":5126,"count":8,"max":[0.75,0.625,-0.125],"min":[0,-3.8125,-2.5625],"type":"VEC3"},{"bufferView":68,"componentType":5126,"count":10,"max":[0.75],"min":[0],"type":"SCALAR"},{"bufferView":69,"componentType":5126,"count":10,"max":[0.9990482330322266,0,0,0.9940563440322876],"min":[-0.7660444378852844,0,0,-0.9320078492164612],"type":"VEC4"},{"bufferView":70,"componentType":5126,"count":10,"max":[0.75],"min":[0],"type":"SCALAR"},{"bufferView":71,"componentType":5126,"count":10,"max":[0,2.75,-0.5],"min":[0,-3.8125,-0.5],"type":"VEC3"},{"bufferView":72,"componentType":5126,"count":7,"max":[0.5],"min":[0],"type":"SCALAR"},{"bufferView":73,"componentType":5126,"count":7,"max":[0.8870108127593994,0,0,0.9600498676300049],"min":[-0.6915130615234375,0,0,-0.9762960076332092],"type":"VEC4"},{"bufferView":74,"componentType":5126,"count":7,"max":[0.5],"min":[0],"type":"SCALAR"},{"bufferView":75,"componentType":5126,"count":7,"max":[0.25,-0.4375,1.375],"min":[-0.5,-3.6875,-0.0625],"type":"VEC3"},{"bufferView":76,"componentType":5126,"count":10,"max":[0.666670024394989],"min":[0],"type":"SCALAR"},{"bufferView":77,"componentType":5126,"count":10,"max":[0.6221939921379089,0,-0.0018745280103757977,0.9469301104545593],"min":[-0.17084842920303345,-0.6003996133804321,-0.7810896635055542,-0.8962007761001587],"type":"VEC4"},{"bufferView":78,"componentType":5126,"count":9,"max":[0.625],"min":[0],"type":"SCALAR"},{"bufferView":79,"componentType":5126,"count":9,"max":[-2.09375,1.890625,-0.5],"min":[-3.40625,-3.609375,-0.5],"type":"VEC3"},{"bufferView":80,"componentType":5126,"count":9,"max":[0.666670024394989],"min":[0],"type":"SCALAR"},{"bufferView":81,"componentType":5126,"count":9,"max":[0.7374142408370972,0.017509756609797478,0.6815357208251953,0.8280514478683472],"min":[-0.6458793878555298,-0.2836085259914398,-0.763389527797699,-0.9583022594451904],"type":"VEC4"},{"bufferView":82,"componentType":5126,"count":9,"max":[0.666670024394989],"min":[0],"type":"SCALAR"},{"bufferView":83,"componentType":5126,"count":9,"max":[2.71875,1,0.9375],"min":[1.28125,-4,-0.375],"type":"VEC3"}],"materials":[{"pbrMetallicRoughness":{"metallicFactor":0,"roughnessFactor":1,"baseColorTexture":{"index":0}},"alphaMode":"MASK","alphaCutoff":0.05,"doubleSided":true}],"textures":[{"sampler":0,"source":0,"name":"stiched_texture"}],"samplers":[{"magFilter":9728,"minFilter":9728,"wrapS":33071,"wrapT":33071}],"images":[{"mimeType":"image/png","uri":"data:image/png;base64,"}],"meshes":[{"primitives":[{"mode":4,"attributes":{"POSITION":0,"NORMAL":1,"TEXCOORD_0":2},"indices":3,"material":0}]},{"primitives":[{"mode":4,"attributes":{"POSITION":4,"NORMAL":5,"TEXCOORD_0":6},"indices":7,"material":0}]},{"primitives":[{"mode":4,"attributes":{"POSITION":8,"NORMAL":9,"TEXCOORD_0":10},"indices":11,"material":0}]},{"primitives":[{"mode":4,"attributes":{"POSITION":12,"NORMAL":13,"TEXCOORD_0":14},"indices":15,"material":0}]},{"primitives":[{"mode":4,"attributes":{"POSITION":16,"NORMAL":17,"TEXCOORD_0":18},"indices":19,"material":0}]},{"primitives":[{"mode":4,"attributes":{"POSITION":20,"NORMAL":21,"TEXCOORD_0":22},"indices":23,"material":0}]},{"primitives":[{"mode":4,"attributes":{"POSITION":24,"NORMAL":25,"TEXCOORD_0":26},"indices":27,"material":0}]},{"primitives":[{"mode":4,"attributes":{"POSITION":28,"NORMAL":29,"TEXCOORD_0":30},"indices":31,"material":0}]},{"primitives":[{"mode":4,"attributes":{"POSITION":32,"NORMAL":33,"TEXCOORD_0":34},"indices":35,"material":0}]},{"primitives":[{"mode":4,"attributes":{"POSITION":36,"NORMAL":37,"TEXCOORD_0":38},"indices":39,"material":0}]},{"primitives":[{"mode":4,"attributes":{"POSITION":40,"NORMAL":41,"TEXCOORD_0":42},"indices":43,"material":0}]},{"primitives":[{"mode":4,"attributes":{"POSITION":44,"NORMAL":45,"TEXCOORD_0":46},"indices":47,"material":0}]},{"primitives":[{"mode":4,"attributes":{"POSITION":48,"NORMAL":49,"TEXCOORD_0":50},"indices":51,"material":0}]},{"primitives":[{"mode":4,"attributes":{"POSITION":52,"NORMAL":53,"TEXCOORD_0":54},"indices":55,"material":0}]},{"primitives":[{"mode":4,"attributes":{"POSITION":56,"NORMAL":57,"TEXCOORD_0":58},"indices":59,"material":0}]}],"animations":[{"name":"Death","samplers":[{"input":60,"output":61,"interpolation":"LINEAR"},{"input":62,"output":63,"interpolation":"LINEAR"},{"input":64,"output":65,"interpolation":"STEP"},{"input":66,"output":67,"interpolation":"STEP"},{"input":68,"output":69,"interpolation":"STEP"},{"input":70,"output":71,"interpolation":"STEP"},{"input":72,"output":73,"interpolation":"STEP"},{"input":74,"output":75,"interpolation":"STEP"},{"input":76,"output":77,"interpolation":"STEP"},{"input":78,"output":79,"interpolation":"STEP"},{"input":80,"output":81,"interpolation":"STEP"},{"input":82,"output":83,"interpolation":"STEP"}],"channels":[{"sampler":0,"target":{"node":20,"path":"translation"}},{"sampler":1,"target":{"node":20,"path":"scale"}},{"sampler":2,"target":{"node":2,"path":"rotation"}},{"sampler":3,"target":{"node":2,"path":"translation"}},{"sampler":4,"target":{"node":5,"path":"rotation"}},{"sampler":5,"target":{"node":5,"path":"translation"}},{"sampler":6,"target":{"node":8,"path":"rotation"}},{"sampler":7,"target":{"node":8,"path":"translation"}},{"sampler":8,"target":{"node":14,"path":"rotation"}},{"sampler":9,"target":{"node":14,"path":"translation"}},{"sampler":10,"target":{"node":19,"path":"rotation"}},{"sampler":11,"target":{"node":19,"path":"translation"}}]}]}